%TF.GenerationSoftware,KiCad,Pcbnew,7.0.6*%
%TF.CreationDate,2024-03-12T08:30:33-05:00*%
%TF.ProjectId,test,74657374-2e6b-4696-9361-645f70636258,rev?*%
%TF.SameCoordinates,Original*%
%TF.FileFunction,Copper,L2,Bot*%
%TF.FilePolarity,Positive*%
%FSLAX46Y46*%
G04 Gerber Fmt 4.6, Leading zero omitted, Abs format (unit mm)*
G04 Created by KiCad (PCBNEW 7.0.6) date 2024-03-12 08:30:33*
%MOMM*%
%LPD*%
G01*
G04 APERTURE LIST*
%TA.AperFunction,ComponentPad*%
%ADD10C,1.600000*%
%TD*%
%TA.AperFunction,ComponentPad*%
%ADD11O,1.600000X1.600000*%
%TD*%
%TA.AperFunction,ComponentPad*%
%ADD12R,1.800000X1.800000*%
%TD*%
%TA.AperFunction,ComponentPad*%
%ADD13C,1.800000*%
%TD*%
%TA.AperFunction,ComponentPad*%
%ADD14R,1.600000X1.600000*%
%TD*%
%TA.AperFunction,ComponentPad*%
%ADD15O,3.556000X1.778000*%
%TD*%
%TA.AperFunction,ComponentPad*%
%ADD16C,2.000000*%
%TD*%
%TA.AperFunction,ComponentPad*%
%ADD17R,1.700000X1.700000*%
%TD*%
%TA.AperFunction,ComponentPad*%
%ADD18O,1.700000X1.700000*%
%TD*%
%TA.AperFunction,Conductor*%
%ADD19C,1.000000*%
%TD*%
%TA.AperFunction,Conductor*%
%ADD20C,0.500000*%
%TD*%
%TA.AperFunction,Conductor*%
%ADD21C,0.250000*%
%TD*%
G04 APERTURE END LIST*
D10*
%TO.P,R3,1*%
%TO.N,Net-(D3-A)*%
X131445000Y-79600000D03*
D11*
%TO.P,R3,2*%
%TO.N,Net-(A1-D9)*%
X131445000Y-82140000D03*
%TD*%
D10*
%TO.P,R2,1*%
%TO.N,Net-(D2-A)*%
X138430000Y-79375000D03*
D11*
%TO.P,R2,2*%
%TO.N,Net-(A1-D8)*%
X138430000Y-81915000D03*
%TD*%
D10*
%TO.P,R1,1*%
%TO.N,Net-(D1-A)*%
X145415000Y-79600000D03*
D11*
%TO.P,R1,2*%
%TO.N,Net-(A1-D7)*%
X145415000Y-82140000D03*
%TD*%
D12*
%TO.P,D1,1,K*%
%TO.N,GND*%
X145415000Y-71755000D03*
D13*
%TO.P,D1,2,A*%
%TO.N,Net-(D1-A)*%
X145415000Y-74295000D03*
%TD*%
D11*
%TO.P,A1,30,VIN*%
%TO.N,Net-(A1-VIN)*%
X155046000Y-104399000D03*
%TO.P,A1,29,GND*%
%TO.N,GND*%
X152506000Y-104399000D03*
%TO.P,A1,28,~{RESET}*%
%TO.N,unconnected-(A1-~{RESET}-Pad28)*%
X149966000Y-104399000D03*
%TO.P,A1,27,+5V*%
%TO.N,+5V*%
X147426000Y-104399000D03*
%TO.P,A1,26,A7*%
%TO.N,unconnected-(A1-A7-Pad26)*%
X144886000Y-104399000D03*
%TO.P,A1,25,A6*%
%TO.N,unconnected-(A1-A6-Pad25)*%
X142346000Y-104399000D03*
%TO.P,A1,24,A5*%
%TO.N,Net-(A1-A5)*%
X139806000Y-104399000D03*
%TO.P,A1,23,A4*%
%TO.N,Net-(A1-A4)*%
X137266000Y-104399000D03*
%TO.P,A1,22,A3*%
%TO.N,unconnected-(A1-A3-Pad22)*%
X134726000Y-104399000D03*
%TO.P,A1,21,A2*%
%TO.N,unconnected-(A1-A2-Pad21)*%
X132186000Y-104399000D03*
%TO.P,A1,20,A1*%
%TO.N,unconnected-(A1-A1-Pad20)*%
X129646000Y-104399000D03*
%TO.P,A1,19,A0*%
%TO.N,unconnected-(A1-A0-Pad19)*%
X127106000Y-104399000D03*
%TO.P,A1,18,AREF*%
%TO.N,unconnected-(A1-AREF-Pad18)*%
X124566000Y-104399000D03*
%TO.P,A1,17,3V3*%
%TO.N,unconnected-(A1-3V3-Pad17)*%
X122026000Y-104399000D03*
%TO.P,A1,16,D13*%
%TO.N,unconnected-(A1-D13-Pad16)*%
X119486000Y-104399000D03*
%TO.P,A1,15,D12*%
%TO.N,unconnected-(A1-D12-Pad15)*%
X119486000Y-89159000D03*
%TO.P,A1,14,D11*%
%TO.N,unconnected-(A1-D11-Pad14)*%
X122026000Y-89159000D03*
%TO.P,A1,13,D10*%
%TO.N,Net-(A1-D10)*%
X124566000Y-89159000D03*
%TO.P,A1,12,D9*%
%TO.N,Net-(A1-D9)*%
X127106000Y-89159000D03*
%TO.P,A1,11,D8*%
%TO.N,Net-(A1-D8)*%
X129646000Y-89159000D03*
%TO.P,A1,10,D7*%
%TO.N,Net-(A1-D7)*%
X132186000Y-89159000D03*
%TO.P,A1,9,D6*%
%TO.N,unconnected-(A1-D6-Pad9)*%
X134726000Y-89159000D03*
%TO.P,A1,8,D5*%
%TO.N,unconnected-(A1-D5-Pad8)*%
X137266000Y-89159000D03*
%TO.P,A1,7,D4*%
%TO.N,unconnected-(A1-D4-Pad7)*%
X139806000Y-89159000D03*
%TO.P,A1,6,D3*%
%TO.N,Net-(A1-D3)*%
X142346000Y-89159000D03*
%TO.P,A1,5,D2*%
%TO.N,unconnected-(A1-D2-Pad5)*%
X144886000Y-89159000D03*
%TO.P,A1,4,GND*%
%TO.N,GND*%
X147426000Y-89159000D03*
%TO.P,A1,3,~{RESET}*%
%TO.N,unconnected-(A1-~{RESET}-Pad3)*%
X149966000Y-89159000D03*
%TO.P,A1,2,D0/RX*%
%TO.N,unconnected-(A1-D0{slash}RX-Pad2)*%
X152506000Y-89159000D03*
D14*
%TO.P,A1,1,D1/TX*%
%TO.N,unconnected-(A1-D1{slash}TX-Pad1)*%
X155046000Y-89159000D03*
%TD*%
D15*
%TO.P,U1,ADO,ADO*%
%TO.N,unconnected-(U1-PadADO)*%
X166370000Y-102870000D03*
%TO.P,U1,GND,GND*%
%TO.N,GND*%
X166370000Y-90170000D03*
%TO.P,U1,INT,INT*%
%TO.N,unconnected-(U1-PadINT)*%
X166370000Y-105410000D03*
%TO.P,U1,SCL,SCL*%
%TO.N,Net-(A1-A5)*%
X166370000Y-92710000D03*
%TO.P,U1,SDA,SDA*%
%TO.N,Net-(A1-A4)*%
X166370000Y-95250000D03*
%TO.P,U1,VCC,VCC*%
%TO.N,+5V*%
X166370000Y-87630000D03*
%TO.P,U1,XCL,XCL*%
%TO.N,unconnected-(U1-PadXCL)*%
X166370000Y-100330000D03*
%TO.P,U1,XDA,XDA*%
%TO.N,unconnected-(U1-PadXDA)*%
X166370000Y-97790000D03*
%TD*%
D16*
%TO.P,SW1,1,1*%
%TO.N,GND*%
X118110000Y-77415000D03*
X124610000Y-77415000D03*
%TO.P,SW1,2,2*%
%TO.N,Net-(A1-D10)*%
X118110000Y-81915000D03*
X124610000Y-81915000D03*
%TD*%
D12*
%TO.P,D2,1,K*%
%TO.N,GND*%
X137795000Y-71755000D03*
D13*
%TO.P,D2,2,A*%
%TO.N,Net-(D2-A)*%
X137795000Y-74295000D03*
%TD*%
D12*
%TO.P,D3,1,K*%
%TO.N,GND*%
X130175000Y-71755000D03*
D13*
%TO.P,D3,2,A*%
%TO.N,Net-(D3-A)*%
X130175000Y-74295000D03*
%TD*%
D17*
%TO.P,J1,1,Pin_1*%
%TO.N,GND*%
X166098000Y-76472000D03*
D18*
%TO.P,J1,2,Pin_2*%
%TO.N,Net-(A1-VIN)*%
X163558000Y-76472000D03*
%TO.P,J1,3,Pin_3*%
%TO.N,Net-(A1-D3)*%
X161018000Y-76472000D03*
%TD*%
D19*
%TO.N,+5V*%
X163195000Y-87630000D02*
X166370000Y-87630000D01*
X163195000Y-106045000D02*
X163195000Y-87630000D01*
X161290000Y-107950000D02*
X163195000Y-106045000D01*
X147426000Y-105592500D02*
X149783500Y-107950000D01*
X147426000Y-104399000D02*
X147426000Y-105592500D01*
X149783500Y-107950000D02*
X161290000Y-107950000D01*
D20*
%TO.N,GND*%
X168910000Y-81915000D02*
X168910000Y-85725000D01*
X166098000Y-79103000D02*
X168910000Y-81915000D01*
X166098000Y-76472000D02*
X166098000Y-79103000D01*
X149225000Y-83185000D02*
X149225000Y-71755000D01*
X149225000Y-71755000D02*
X164193000Y-71755000D01*
X145415000Y-71755000D02*
X149225000Y-71755000D01*
X147426000Y-84984000D02*
X149225000Y-83185000D01*
X147426000Y-89159000D02*
X147426000Y-84984000D01*
X164193000Y-71755000D02*
X166098000Y-73660000D01*
X166098000Y-76472000D02*
X166098000Y-73660000D01*
X137795000Y-71755000D02*
X145415000Y-71755000D01*
X137795000Y-71755000D02*
X130175000Y-71755000D01*
X127725000Y-71755000D02*
X130175000Y-71755000D01*
X124610000Y-74870000D02*
X127725000Y-71755000D01*
X124610000Y-74870000D02*
X124610000Y-77415000D01*
X165611299Y-75985299D02*
X165735000Y-76109000D01*
X168910000Y-85725000D02*
X168910000Y-90170000D01*
X168910000Y-90170000D02*
X166370000Y-90170000D01*
D21*
%TO.N,+5V*%
X166370000Y-87630000D02*
X166620000Y-87630000D01*
D20*
%TO.N,GND*%
X147426000Y-91440000D02*
X152506000Y-96520000D01*
X152506000Y-96520000D02*
X152506000Y-104399000D01*
X147426000Y-91440000D02*
X147426000Y-89159000D01*
X147426000Y-91546000D02*
X147426000Y-91440000D01*
X166370000Y-90170000D02*
X166120000Y-90170000D01*
X165735000Y-90170000D02*
X166370000Y-90170000D01*
%TD*%
M02*
