M48
; DRILL file {KiCad 7.0.6} date Tue Mar 12 08:30:46 2024
; FORMAT={-:-/ absolute / inch / decimal}
; #@! TF.CreationDate,2024-03-12T08:30:46-05:00
; #@! TF.GenerationSoftware,Kicad,Pcbnew,7.0.6
; #@! TF.FileFunction,Plated,1,2,PTH
FMAT,2
INCH
; #@! TA.AperFunction,Plated,PTH,ComponentDrill
T1C0.0315
; #@! TA.AperFunction,Plated,PTH,ComponentDrill
T2C0.0354
; #@! TA.AperFunction,Plated,PTH,ComponentDrill
T3C0.0394
; #@! TA.AperFunction,Plated,PTH,ComponentDrill
T4C0.0433
%
G90
G05
T1
X5.175Y-3.1339
X5.175Y-3.2339
X5.45Y-3.125
X5.45Y-3.225
X5.725Y-3.1339
X5.725Y-3.2339
X6.55Y-3.45
X6.55Y-3.55
X6.55Y-3.65
X6.55Y-3.75
X6.55Y-3.85
X6.55Y-3.95
X6.55Y-4.05
X6.55Y-4.15
T2
X5.125Y-2.825
X5.125Y-2.925
X5.425Y-2.825
X5.425Y-2.925
X5.725Y-2.825
X5.725Y-2.925
T3
X4.7042Y-3.5102
X4.7042Y-4.1102
X4.8042Y-3.5102
X4.8042Y-4.1102
X4.9042Y-3.5102
X4.9042Y-4.1102
X5.0042Y-3.5102
X5.0042Y-4.1102
X5.1042Y-3.5102
X5.1042Y-4.1102
X5.2042Y-3.5102
X5.2042Y-4.1102
X5.3042Y-3.5102
X5.3042Y-4.1102
X5.4042Y-3.5102
X5.4042Y-4.1102
X5.5042Y-3.5102
X5.5042Y-4.1102
X5.6042Y-3.5102
X5.6042Y-4.1102
X5.7042Y-3.5102
X5.7042Y-4.1102
X5.8042Y-3.5102
X5.8042Y-4.1102
X5.9042Y-3.5102
X5.9042Y-4.1102
X6.0042Y-3.5102
X6.0042Y-4.1102
X6.1042Y-3.5102
X6.1042Y-4.1102
X6.3393Y-3.0107
X6.4393Y-3.0107
X6.5393Y-3.0107
T4
X4.65Y-3.0478
X4.65Y-3.225
X4.9059Y-3.0478
X4.9059Y-3.225
T0
M30
